# xmcd CD database file
#
# Track frame offsets:
#	150
#	15523
#	32588
#	62163
#	75500
#	94700
#	105998
#	120488
#	141710
#	159513
#	175723
#	206013
#	223988
#	243158
#	260873
#	285385
#	300723
#
# Disc length: 4195 seconds
#
# Revision: 0
# Processed by: cddbd v1.4PL0 Copyright (c) Steve Scherf et al.
# Submitted via: CDex 1.50Beta7
#
DISCID=e9106111
DTITLE=Clarence Gatemouth Brown - Best Track's
DYEAR=1988
DGENRE=Blues
TTITLE0=Ain't That Dandy
TTITLE1=Frosty
TTITLE2=Some Times I Slip
TTITLE3=Baby Take It Easy
TTITLE4=Near Baku
TTITLE5=I Feel Alright Again
TTITLE6=Alligator Boogaloo
TTITLE7=I Wonder
TTITLE8=Stranded
TTITLE9=Next Time You See
TTITLE10=Please Send Me Someone To Love
TTITLE11=Gate Walks To Board
TTITLE12=One More Mile
TTITLE13=Sunrise Cajun Style
TTITLE14=Song For Renee
TTITLE15=Information Blues
TTITLE16=Flippin'
EXTD=YEAR: 1988
EXTT0=
EXTT1=
EXTT2=
EXTT3=
EXTT4=
EXTT5=
EXTT6=
EXTT7=
EXTT8=
EXTT9=
EXTT10=
EXTT11=
EXTT12=
EXTT13=
EXTT14=
EXTT15=
EXTT16=
PLAYORDER=
